M48
;Layer_Color=9474304
;FILE_FORMAT=2:4
INCH
;TYPE=PLATED
T3F00S00C0.0217
T4F00S00C0.0236
T6F00S00C0.0335
;TYPE=NON_PLATED
%
G90
G05
T03
G00X013553Y028593
M15
G01X013809
M16
G00X013553Y031644
M15
G01X013809
M16
T04
G00X037010Y018689
M15
G01X036774
M16
G00X038872Y018689
M15
G01X038636
M16
G00X038872Y022051
M15
G01X038636
M16
G00X038837Y022844
M15
G01X038601
M16
G00X036975Y022844
M15
G01X036739
M16
G00X037010Y022051
M15
G01X036774
M16
G00X036975Y026206
M15
G01X036739
M16
G00X038837Y026206
M15
G01X038601
M16
T06
G00X015069Y028652
M15
G01X015285
M16
G00X015069Y031585
M15
G01X015285
M16
M17
M30
