G04 Layer_Color=8421504*
%FSLAX24Y24*%
%MOIN*%
G70*
G01*
G75*
%ADD10R,0.0579X0.0311*%
%ADD11R,0.0236X0.0256*%
%ADD12R,0.0244X0.0236*%
%ADD13R,0.0394X0.0433*%
%ADD14R,0.0118X0.0581*%
%ADD15R,0.0581X0.0118*%
%ADD16R,0.0236X0.0244*%
%ADD17R,0.0752X0.1705*%
%ADD18R,0.1705X0.0752*%
%ADD19R,0.0472X0.0236*%
%ADD20R,0.0394X0.0354*%
%ADD21R,0.0669X0.0866*%
%ADD22R,0.0335X0.0157*%
%ADD23R,0.0492X0.0669*%
%ADD24R,0.0669X0.0492*%
%ADD25R,0.0512X0.0177*%
%ADD26C,0.0118*%
G04:AMPARAMS|DCode=27|XSize=78.7mil|YSize=78.7mil|CornerRadius=0mil|HoleSize=0mil|Usage=FLASHONLY|Rotation=270.000|XOffset=0mil|YOffset=0mil|HoleType=Round|Shape=RoundedRectangle|*
%AMROUNDEDRECTD27*
21,1,0.0787,0.0787,0,0,270.0*
21,1,0.0787,0.0787,0,0,270.0*
1,1,0.0000,-0.0394,-0.0394*
1,1,0.0000,-0.0394,0.0394*
1,1,0.0000,0.0394,0.0394*
1,1,0.0000,0.0394,-0.0394*
%
%ADD27ROUNDEDRECTD27*%
%ADD28R,0.0276X0.0276*%
%ADD29R,0.0780X0.0220*%
%ADD30R,0.0394X0.0079*%
%ADD31R,0.0472X0.0118*%
%ADD32R,0.0311X0.0579*%
%ADD33R,0.0602X0.1071*%
D10*
X21575Y34642D02*
D03*
Y35496D02*
D03*
X22800Y28348D02*
D03*
Y29202D02*
D03*
X21300Y30652D02*
D03*
Y29798D02*
D03*
X20500Y30652D02*
D03*
Y29798D02*
D03*
X18900Y30652D02*
D03*
Y29798D02*
D03*
X19700Y30652D02*
D03*
Y29798D02*
D03*
X21900Y32627D02*
D03*
Y31773D02*
D03*
X23600Y29202D02*
D03*
Y28348D02*
D03*
X17900Y31748D02*
D03*
Y32602D02*
D03*
X17550Y26498D02*
D03*
Y27352D02*
D03*
D11*
X33701Y18504D02*
D03*
Y19504D02*
D03*
X29528Y18504D02*
D03*
Y19504D02*
D03*
D12*
X33189Y22811D02*
D03*
Y23173D02*
D03*
X32441Y36669D02*
D03*
Y37032D02*
D03*
X27047Y24803D02*
D03*
Y24441D02*
D03*
X31772Y25598D02*
D03*
Y25236D02*
D03*
X24370Y31591D02*
D03*
Y31953D02*
D03*
D13*
X32441Y35531D02*
D03*
Y36201D02*
D03*
X26890Y23917D02*
D03*
Y23248D02*
D03*
X31772Y24764D02*
D03*
Y24094D02*
D03*
X30551Y25236D02*
D03*
Y24567D02*
D03*
D14*
X25755Y34828D02*
D03*
X25952D02*
D03*
X26149D02*
D03*
X26346D02*
D03*
X26543D02*
D03*
X26739D02*
D03*
X26936D02*
D03*
X27133D02*
D03*
X27330D02*
D03*
X27527D02*
D03*
X27724D02*
D03*
X27920D02*
D03*
X28117D02*
D03*
X28314D02*
D03*
X28511D02*
D03*
X28708D02*
D03*
X28905D02*
D03*
X29102D02*
D03*
X29298D02*
D03*
X29495D02*
D03*
X29692D02*
D03*
X29889D02*
D03*
X30086D02*
D03*
X30283D02*
D03*
X30480D02*
D03*
X30676D02*
D03*
X30873D02*
D03*
X31070D02*
D03*
X31267D02*
D03*
X31464D02*
D03*
X31661D02*
D03*
X31857D02*
D03*
X32054D02*
D03*
X32251D02*
D03*
X32448D02*
D03*
X32645D02*
D03*
Y26372D02*
D03*
X32448D02*
D03*
X32251D02*
D03*
X32054D02*
D03*
X31857D02*
D03*
X31661D02*
D03*
X31464D02*
D03*
X31267D02*
D03*
X31070D02*
D03*
X30873D02*
D03*
X30676D02*
D03*
X30480D02*
D03*
X30283D02*
D03*
X30086D02*
D03*
X29889D02*
D03*
X29692D02*
D03*
X29495D02*
D03*
X29298D02*
D03*
X29102D02*
D03*
X28905D02*
D03*
X28708D02*
D03*
X28511D02*
D03*
X28314D02*
D03*
X28117D02*
D03*
X27920D02*
D03*
X27724D02*
D03*
X27527D02*
D03*
X27330D02*
D03*
X27133D02*
D03*
X26936D02*
D03*
X26739D02*
D03*
X26543D02*
D03*
X26346D02*
D03*
X26149D02*
D03*
X25952D02*
D03*
X25755D02*
D03*
D15*
X33428Y34045D02*
D03*
Y33848D02*
D03*
Y33651D02*
D03*
Y33454D02*
D03*
Y33257D02*
D03*
Y33061D02*
D03*
Y32864D02*
D03*
Y32667D02*
D03*
Y32470D02*
D03*
Y32273D02*
D03*
Y32076D02*
D03*
Y31880D02*
D03*
Y31683D02*
D03*
Y31486D02*
D03*
Y31289D02*
D03*
Y31092D02*
D03*
Y30895D02*
D03*
Y30698D02*
D03*
Y30502D02*
D03*
Y30305D02*
D03*
Y30108D02*
D03*
Y29911D02*
D03*
Y29714D02*
D03*
Y29517D02*
D03*
Y29320D02*
D03*
Y29124D02*
D03*
Y28927D02*
D03*
Y28730D02*
D03*
Y28533D02*
D03*
Y28336D02*
D03*
Y28139D02*
D03*
Y27943D02*
D03*
Y27746D02*
D03*
Y27549D02*
D03*
Y27352D02*
D03*
Y27155D02*
D03*
X24972D02*
D03*
Y27352D02*
D03*
Y27549D02*
D03*
Y27746D02*
D03*
Y27943D02*
D03*
Y28139D02*
D03*
Y28336D02*
D03*
Y28533D02*
D03*
Y28730D02*
D03*
Y28927D02*
D03*
Y29124D02*
D03*
Y29320D02*
D03*
Y29517D02*
D03*
Y29714D02*
D03*
Y29911D02*
D03*
Y30108D02*
D03*
Y30305D02*
D03*
Y30502D02*
D03*
Y30698D02*
D03*
Y30895D02*
D03*
Y31092D02*
D03*
Y31289D02*
D03*
Y31486D02*
D03*
Y31683D02*
D03*
Y31880D02*
D03*
Y32076D02*
D03*
Y32273D02*
D03*
Y32470D02*
D03*
Y32667D02*
D03*
Y32864D02*
D03*
Y33061D02*
D03*
Y33257D02*
D03*
Y33454D02*
D03*
Y33651D02*
D03*
Y33848D02*
D03*
Y34045D02*
D03*
D16*
X21169Y29150D02*
D03*
X21531D02*
D03*
X15661Y30354D02*
D03*
X16024D02*
D03*
X29882Y25732D02*
D03*
X30244D02*
D03*
X15646Y29921D02*
D03*
X16008D02*
D03*
D17*
X18900Y28500D02*
D03*
X20455D02*
D03*
D18*
X21950Y25995D02*
D03*
Y27550D02*
D03*
D19*
X19862Y33878D02*
D03*
Y34252D02*
D03*
Y34626D02*
D03*
X20846D02*
D03*
Y34252D02*
D03*
Y33878D02*
D03*
D20*
X18650Y31918D02*
D03*
Y32450D02*
D03*
X19250Y32482D02*
D03*
Y31950D02*
D03*
D21*
X23150Y32300D02*
D03*
D22*
X22579Y31926D02*
D03*
Y32300D02*
D03*
Y32674D02*
D03*
X23721D02*
D03*
Y32300D02*
D03*
Y31926D02*
D03*
D23*
X19950Y31800D02*
D03*
X21150D02*
D03*
X19951Y32953D02*
D03*
X21152D02*
D03*
D24*
X16535Y29144D02*
D03*
Y27943D02*
D03*
X17795Y29144D02*
D03*
Y27943D02*
D03*
D25*
X15177Y30630D02*
D03*
Y29606D02*
D03*
Y30374D02*
D03*
Y30118D02*
D03*
Y29862D02*
D03*
D26*
X29311Y22776D02*
D03*
Y22972D02*
D03*
Y23169D02*
D03*
Y23366D02*
D03*
X28996Y23681D02*
D03*
X28799D02*
D03*
X28602D02*
D03*
X28406D02*
D03*
X28091Y23366D02*
D03*
Y23169D02*
D03*
Y22972D02*
D03*
Y22776D02*
D03*
X28406Y22461D02*
D03*
X28602D02*
D03*
X28799D02*
D03*
X28996D02*
D03*
D27*
X28701Y23071D02*
D03*
D28*
X26240Y20974D02*
D03*
Y22726D02*
D03*
X27618D02*
D03*
Y20974D02*
D03*
D29*
X31157Y22443D02*
D03*
Y21943D02*
D03*
Y21443D02*
D03*
Y20943D02*
D03*
X33017D02*
D03*
Y21443D02*
D03*
Y21943D02*
D03*
Y22443D02*
D03*
D30*
X37715Y24525D02*
D03*
X38936D02*
D03*
X37750Y20370D02*
D03*
X38970D02*
D03*
D31*
X35912Y23442D02*
D03*
Y23639D02*
D03*
Y23836D02*
D03*
Y24033D02*
D03*
Y24230D02*
D03*
Y24427D02*
D03*
Y24624D02*
D03*
Y24820D02*
D03*
Y25017D02*
D03*
Y25214D02*
D03*
Y25411D02*
D03*
Y25608D02*
D03*
X35947Y19287D02*
D03*
Y19484D02*
D03*
Y19681D02*
D03*
Y19878D02*
D03*
Y20075D02*
D03*
Y20272D02*
D03*
Y20468D02*
D03*
Y20665D02*
D03*
Y20862D02*
D03*
Y21059D02*
D03*
Y21256D02*
D03*
Y21453D02*
D03*
D32*
X22102Y28500D02*
D03*
X21248D02*
D03*
X22526Y25079D02*
D03*
X23380D02*
D03*
X23627Y33350D02*
D03*
X22773D02*
D03*
D33*
X20338Y35660D02*
D03*
X19282D02*
D03*
M02*
