G04 Layer_Color=8388736*
%FSLAX24Y24*%
%MOIN*%
G70*
G01*
G75*
%ADD53R,0.0659X0.0391*%
%ADD54R,0.0316X0.0336*%
%ADD55R,0.0324X0.0316*%
%ADD56R,0.0474X0.0513*%
%ADD57R,0.0198X0.0661*%
%ADD58R,0.0661X0.0198*%
%ADD59R,0.0316X0.0324*%
%ADD60R,0.0832X0.1785*%
%ADD61R,0.1785X0.0832*%
%ADD62R,0.0552X0.0316*%
%ADD63R,0.0474X0.0434*%
%ADD64R,0.0749X0.0946*%
%ADD65R,0.0415X0.0237*%
%ADD66R,0.0572X0.0749*%
%ADD67R,0.0749X0.0572*%
%ADD68R,0.0592X0.0257*%
%ADD69C,0.0198*%
G04:AMPARAMS|DCode=70|XSize=86.7mil|YSize=86.7mil|CornerRadius=0mil|HoleSize=0mil|Usage=FLASHONLY|Rotation=270.000|XOffset=0mil|YOffset=0mil|HoleType=Round|Shape=RoundedRectangle|*
%AMROUNDEDRECTD70*
21,1,0.0867,0.0867,0,0,270.0*
21,1,0.0867,0.0867,0,0,270.0*
1,1,0.0000,-0.0434,-0.0434*
1,1,0.0000,-0.0434,0.0434*
1,1,0.0000,0.0434,0.0434*
1,1,0.0000,0.0434,-0.0434*
%
%ADD70ROUNDEDRECTD70*%
%ADD71R,0.0356X0.0356*%
%ADD72R,0.0860X0.0300*%
%ADD73R,0.0474X0.0159*%
%ADD74R,0.0552X0.0198*%
%ADD75R,0.0391X0.0659*%
%ADD76R,0.0682X0.1151*%
%ADD77C,0.0680*%
%ADD78C,0.0671*%
%ADD79R,0.0671X0.0671*%
%ADD80C,0.0513*%
%ADD81O,0.0867X0.0651*%
%ADD82O,0.0789X0.0533*%
%ADD83C,0.0395*%
%ADD84R,0.0671X0.0671*%
%ADD85O,0.0710X0.0474*%
%ADD86C,0.0413*%
D53*
X21575Y34642D02*
D03*
Y35496D02*
D03*
X22800Y28348D02*
D03*
Y29202D02*
D03*
X21300Y30652D02*
D03*
Y29798D02*
D03*
X20500Y30652D02*
D03*
Y29798D02*
D03*
X18900Y30652D02*
D03*
Y29798D02*
D03*
X19700Y30652D02*
D03*
Y29798D02*
D03*
X21900Y32627D02*
D03*
Y31773D02*
D03*
X23600Y29202D02*
D03*
Y28348D02*
D03*
X17900Y31748D02*
D03*
Y32602D02*
D03*
X17550Y26498D02*
D03*
Y27352D02*
D03*
D54*
X33701Y18504D02*
D03*
Y19504D02*
D03*
X29528Y18504D02*
D03*
Y19504D02*
D03*
D55*
X33189Y22811D02*
D03*
Y23173D02*
D03*
X32441Y36669D02*
D03*
Y37032D02*
D03*
X27047Y24803D02*
D03*
Y24441D02*
D03*
X31772Y25598D02*
D03*
Y25236D02*
D03*
X24370Y31591D02*
D03*
Y31953D02*
D03*
D56*
X32441Y35531D02*
D03*
Y36201D02*
D03*
X26890Y23917D02*
D03*
Y23248D02*
D03*
X31772Y24764D02*
D03*
Y24094D02*
D03*
X30551Y25236D02*
D03*
Y24567D02*
D03*
D57*
X25755Y34828D02*
D03*
X25952D02*
D03*
X26149D02*
D03*
X26346D02*
D03*
X26543D02*
D03*
X26739D02*
D03*
X26936D02*
D03*
X27133D02*
D03*
X27330D02*
D03*
X27527D02*
D03*
X27724D02*
D03*
X27920D02*
D03*
X28117D02*
D03*
X28314D02*
D03*
X28511D02*
D03*
X28708D02*
D03*
X28905D02*
D03*
X29102D02*
D03*
X29298D02*
D03*
X29495D02*
D03*
X29692D02*
D03*
X29889D02*
D03*
X30086D02*
D03*
X30283D02*
D03*
X30480D02*
D03*
X30676D02*
D03*
X30873D02*
D03*
X31070D02*
D03*
X31267D02*
D03*
X31464D02*
D03*
X31661D02*
D03*
X31857D02*
D03*
X32054D02*
D03*
X32251D02*
D03*
X32448D02*
D03*
X32645D02*
D03*
Y26372D02*
D03*
X32448D02*
D03*
X32251D02*
D03*
X32054D02*
D03*
X31857D02*
D03*
X31661D02*
D03*
X31464D02*
D03*
X31267D02*
D03*
X31070D02*
D03*
X30873D02*
D03*
X30676D02*
D03*
X30480D02*
D03*
X30283D02*
D03*
X30086D02*
D03*
X29889D02*
D03*
X29692D02*
D03*
X29495D02*
D03*
X29298D02*
D03*
X29102D02*
D03*
X28905D02*
D03*
X28708D02*
D03*
X28511D02*
D03*
X28314D02*
D03*
X28117D02*
D03*
X27920D02*
D03*
X27724D02*
D03*
X27527D02*
D03*
X27330D02*
D03*
X27133D02*
D03*
X26936D02*
D03*
X26739D02*
D03*
X26543D02*
D03*
X26346D02*
D03*
X26149D02*
D03*
X25952D02*
D03*
X25755D02*
D03*
D58*
X33428Y34045D02*
D03*
Y33848D02*
D03*
Y33651D02*
D03*
Y33454D02*
D03*
Y33257D02*
D03*
Y33061D02*
D03*
Y32864D02*
D03*
Y32667D02*
D03*
Y32470D02*
D03*
Y32273D02*
D03*
Y32076D02*
D03*
Y31880D02*
D03*
Y31683D02*
D03*
Y31486D02*
D03*
Y31289D02*
D03*
Y31092D02*
D03*
Y30895D02*
D03*
Y30698D02*
D03*
Y30502D02*
D03*
Y30305D02*
D03*
Y30108D02*
D03*
Y29911D02*
D03*
Y29714D02*
D03*
Y29517D02*
D03*
Y29320D02*
D03*
Y29124D02*
D03*
Y28927D02*
D03*
Y28730D02*
D03*
Y28533D02*
D03*
Y28336D02*
D03*
Y28139D02*
D03*
Y27943D02*
D03*
Y27746D02*
D03*
Y27549D02*
D03*
Y27352D02*
D03*
Y27155D02*
D03*
X24972D02*
D03*
Y27352D02*
D03*
Y27549D02*
D03*
Y27746D02*
D03*
Y27943D02*
D03*
Y28139D02*
D03*
Y28336D02*
D03*
Y28533D02*
D03*
Y28730D02*
D03*
Y28927D02*
D03*
Y29124D02*
D03*
Y29320D02*
D03*
Y29517D02*
D03*
Y29714D02*
D03*
Y29911D02*
D03*
Y30108D02*
D03*
Y30305D02*
D03*
Y30502D02*
D03*
Y30698D02*
D03*
Y30895D02*
D03*
Y31092D02*
D03*
Y31289D02*
D03*
Y31486D02*
D03*
Y31683D02*
D03*
Y31880D02*
D03*
Y32076D02*
D03*
Y32273D02*
D03*
Y32470D02*
D03*
Y32667D02*
D03*
Y32864D02*
D03*
Y33061D02*
D03*
Y33257D02*
D03*
Y33454D02*
D03*
Y33651D02*
D03*
Y33848D02*
D03*
Y34045D02*
D03*
D59*
X21169Y29150D02*
D03*
X21531D02*
D03*
X15661Y30354D02*
D03*
X16024D02*
D03*
X29882Y25732D02*
D03*
X30244D02*
D03*
X15646Y29921D02*
D03*
X16008D02*
D03*
D60*
X18900Y28500D02*
D03*
X20455D02*
D03*
D61*
X21950Y25995D02*
D03*
Y27550D02*
D03*
D62*
X19862Y33878D02*
D03*
Y34252D02*
D03*
Y34626D02*
D03*
X20846D02*
D03*
Y34252D02*
D03*
Y33878D02*
D03*
D63*
X18650Y31918D02*
D03*
Y32450D02*
D03*
X19250Y32482D02*
D03*
Y31950D02*
D03*
D64*
X23150Y32300D02*
D03*
D65*
X22579Y31926D02*
D03*
Y32300D02*
D03*
Y32674D02*
D03*
X23721D02*
D03*
Y32300D02*
D03*
Y31926D02*
D03*
D66*
X19950Y31800D02*
D03*
X21150D02*
D03*
X19951Y32953D02*
D03*
X21152D02*
D03*
D67*
X16535Y29144D02*
D03*
Y27943D02*
D03*
X17795Y29144D02*
D03*
Y27943D02*
D03*
D68*
X15177Y30630D02*
D03*
Y29606D02*
D03*
Y30374D02*
D03*
Y30118D02*
D03*
Y29862D02*
D03*
D69*
X29311Y22776D02*
D03*
Y22972D02*
D03*
Y23169D02*
D03*
Y23366D02*
D03*
X28996Y23681D02*
D03*
X28799D02*
D03*
X28602D02*
D03*
X28406D02*
D03*
X28091Y23366D02*
D03*
Y23169D02*
D03*
Y22972D02*
D03*
Y22776D02*
D03*
X28406Y22461D02*
D03*
X28602D02*
D03*
X28799D02*
D03*
X28996D02*
D03*
D70*
X28701Y23071D02*
D03*
D71*
X26240Y20974D02*
D03*
Y22726D02*
D03*
X27618D02*
D03*
Y20974D02*
D03*
D72*
X31157Y22443D02*
D03*
Y21943D02*
D03*
Y21443D02*
D03*
Y20943D02*
D03*
X33017D02*
D03*
Y21443D02*
D03*
Y21943D02*
D03*
Y22443D02*
D03*
D73*
X37715Y24525D02*
D03*
X38936D02*
D03*
X37750Y20370D02*
D03*
X38970D02*
D03*
D74*
X35912Y23442D02*
D03*
Y23639D02*
D03*
Y23836D02*
D03*
Y24033D02*
D03*
Y24230D02*
D03*
Y24427D02*
D03*
Y24624D02*
D03*
Y24820D02*
D03*
Y25017D02*
D03*
Y25214D02*
D03*
Y25411D02*
D03*
Y25608D02*
D03*
X35947Y19287D02*
D03*
Y19484D02*
D03*
Y19681D02*
D03*
Y19878D02*
D03*
Y20075D02*
D03*
Y20272D02*
D03*
Y20468D02*
D03*
Y20665D02*
D03*
Y20862D02*
D03*
Y21059D02*
D03*
Y21256D02*
D03*
Y21453D02*
D03*
D75*
X22102Y28500D02*
D03*
X21248D02*
D03*
X22526Y25079D02*
D03*
X23380D02*
D03*
X23627Y33350D02*
D03*
X22773D02*
D03*
D76*
X20338Y35660D02*
D03*
X19282D02*
D03*
D77*
X34449Y18504D02*
D03*
X28898Y18465D02*
D03*
X18622Y31260D02*
D03*
X33740Y23504D02*
D03*
X34882Y19843D02*
D03*
X37559Y21299D02*
D03*
X37362Y23937D02*
D03*
X26220Y28898D02*
D03*
X18563Y33878D02*
D03*
X26929Y29961D02*
D03*
X19173Y34449D02*
D03*
X21535Y33819D02*
D03*
X22520Y31220D02*
D03*
X25942Y31092D02*
D03*
X26950Y27700D02*
D03*
X29500D02*
D03*
X32250D02*
D03*
X32161Y31289D02*
D03*
X32200Y33850D02*
D03*
X30100Y33500D02*
D03*
X27550Y33750D02*
D03*
X25900Y33250D02*
D03*
X25866Y28268D02*
D03*
X24685Y25315D02*
D03*
X27638Y23583D02*
D03*
X29252Y24252D02*
D03*
X28504Y25079D02*
D03*
X29685D02*
D03*
X29882Y22874D02*
D03*
X32441Y24961D02*
D03*
X22126Y30140D02*
D03*
X23898Y30315D02*
D03*
X17323Y30079D02*
D03*
X17638Y30787D02*
D03*
X25910Y30160D02*
D03*
D78*
X34646Y23795D02*
D03*
Y22795D02*
D03*
Y21795D02*
D03*
X35276Y33748D02*
D03*
Y34748D02*
D03*
Y35748D02*
D03*
Y28252D02*
D03*
Y29252D02*
D03*
Y30252D02*
D03*
X31551Y37165D02*
D03*
X30551D02*
D03*
X29551D02*
D03*
X27244D02*
D03*
X26244D02*
D03*
X25244D02*
D03*
X36850Y33780D02*
D03*
Y34780D02*
D03*
Y35780D02*
D03*
Y28276D02*
D03*
Y29276D02*
D03*
Y30276D02*
D03*
X27244Y35945D02*
D03*
X26244D02*
D03*
X25244D02*
D03*
X31535Y35984D02*
D03*
X30535D02*
D03*
X29535D02*
D03*
D79*
X34646Y20795D02*
D03*
X35276Y36748D02*
D03*
Y31252D02*
D03*
X36850Y36780D02*
D03*
Y31276D02*
D03*
D80*
X26450Y25600D02*
D03*
X25859D02*
D03*
X34200Y26845D02*
D03*
Y26255D02*
D03*
D81*
X15177Y31585D02*
D03*
Y28652D02*
D03*
D82*
X13681Y31644D02*
D03*
Y28593D02*
D03*
D83*
X14764Y31102D02*
D03*
Y29134D02*
D03*
D84*
X28551Y37165D02*
D03*
X24244D02*
D03*
Y35945D02*
D03*
X28535Y35984D02*
D03*
D85*
X38719Y22844D02*
D03*
Y26206D02*
D03*
X36857Y22844D02*
D03*
X38754Y18689D02*
D03*
Y22051D02*
D03*
X36892Y18689D02*
D03*
Y22051D02*
D03*
X36857Y26206D02*
D03*
D86*
X36680Y25470D02*
D03*
Y23580D02*
D03*
Y25155D02*
D03*
Y23895D02*
D03*
Y24840D02*
D03*
Y24210D02*
D03*
X36404Y25627D02*
D03*
Y23423D02*
D03*
Y25313D02*
D03*
Y23738D02*
D03*
Y24998D02*
D03*
Y24053D02*
D03*
Y24683D02*
D03*
Y24368D02*
D03*
X36715Y21315D02*
D03*
Y19425D02*
D03*
Y21000D02*
D03*
Y19740D02*
D03*
Y20685D02*
D03*
Y20055D02*
D03*
X36439Y21472D02*
D03*
Y19268D02*
D03*
Y21157D02*
D03*
Y19583D02*
D03*
Y20842D02*
D03*
Y19898D02*
D03*
Y20527D02*
D03*
Y20213D02*
D03*
M02*
