G04 Layer_Physical_Order=2*
G04 Layer_Color=16711680*
%FSLAX24Y24*%
%MOIN*%
G70*
G01*
G75*
%ADD34C,0.0100*%
%ADD35C,0.0600*%
%ADD36C,0.0591*%
%ADD37R,0.0591X0.0591*%
%ADD38C,0.0433*%
%ADD39O,0.0787X0.0571*%
%ADD40O,0.0709X0.0453*%
%ADD41C,0.0315*%
%ADD42R,0.0591X0.0591*%
%ADD43O,0.0630X0.0394*%
%ADD44C,0.0256*%
D34*
X35669Y22689D02*
X36406Y23425D01*
X25244Y37165D02*
X26047Y37968D01*
X29551D01*
X36850Y30276D02*
X37520Y30945D01*
Y35110D01*
X36850Y35780D02*
X37520Y35110D01*
X34803Y35748D02*
X35276D01*
X32583Y37968D02*
X34803Y35748D01*
X29551Y37968D02*
X32583D01*
X29551Y37165D02*
Y37968D01*
X34449Y18504D02*
X34685Y18740D01*
Y19016D01*
X33937Y19764D02*
X34685Y19016D01*
X33937Y19764D02*
Y21087D01*
X34646Y21795D01*
X36535Y18898D02*
X36929Y19291D01*
X35748Y18898D02*
X36535D01*
X35669Y21819D02*
Y22689D01*
X34646Y20795D02*
X35669Y21819D01*
X15748Y27559D02*
X17323Y25984D01*
X15748Y27559D02*
Y28110D01*
X15827Y32047D02*
X16575Y31299D01*
X18504D01*
X18622Y31260D01*
X21805Y30677D02*
X22634D01*
X21529Y30953D02*
X21805Y30677D01*
X21850Y30787D02*
X22589D01*
X21575Y31063D02*
X21850Y30787D01*
X19606Y31063D02*
X21575D01*
X19561Y30953D02*
X21529D01*
X32402Y24528D02*
X32835Y24094D01*
Y22874D02*
Y24094D01*
X29882Y22874D02*
X32835D01*
X33937Y23504D02*
X34646Y22795D01*
X33740Y23504D02*
X33937D01*
X34882Y19764D02*
X35748Y18898D01*
X37362Y21614D02*
X37598Y21378D01*
X37362Y21614D02*
Y23937D01*
X24519Y28906D02*
X26032D01*
X21811Y31181D02*
X22520Y31220D01*
X18563Y33681D02*
X18937Y33307D01*
X18563Y33681D02*
Y33878D01*
X19606Y31063D02*
Y33307D01*
X19173Y33740D02*
X19606Y33307D01*
X19173Y33740D02*
Y34449D01*
X21496Y31496D02*
Y33622D01*
Y31496D02*
X21811Y31181D01*
X26950Y27700D02*
X29500D01*
X32250D01*
X32161Y27789D02*
X32250Y27700D01*
X32161Y27789D02*
Y31289D01*
X32200Y31328D01*
Y33850D01*
X31850Y33500D02*
X32200Y33850D01*
X30100Y33500D02*
X31850D01*
X29850Y33750D02*
X30100Y33500D01*
X27550Y33750D02*
X29850D01*
X27050Y33250D02*
X27550Y33750D01*
X25900Y33250D02*
X27050D01*
X18937Y31496D02*
Y33307D01*
X25866Y27402D02*
Y28268D01*
X24685Y26220D02*
X25866Y27402D01*
X24685Y25315D02*
Y26220D01*
X27638Y23583D02*
Y24094D01*
X29016D01*
X28504Y25079D02*
X29685D01*
X32402Y24528D02*
Y24724D01*
X22126Y30140D02*
Y30315D01*
X22589Y30787D02*
X22662Y30860D01*
X22669D01*
X22880Y31071D01*
Y31079D01*
X23061Y31260D01*
X18937Y31496D02*
X19331Y31102D01*
X22634Y30677D02*
X22707Y30750D01*
X22714D01*
X22990Y31026D01*
Y31033D01*
X23107Y31150D01*
X24285D01*
X24519Y30916D01*
Y28906D02*
Y30916D01*
X19331Y31102D02*
X19411D01*
X19561Y30953D01*
X22638Y30315D02*
X23898D01*
X14173Y28110D02*
X15748D01*
X14173D02*
Y32047D01*
X15827D01*
X27756Y18465D02*
X28780D01*
X17323Y25984D02*
X20236D01*
X36929Y19291D02*
Y19764D01*
X36720D02*
X36929D01*
X36680Y25470D02*
X37610Y26400D01*
Y30780D01*
X37520Y30870D02*
Y30945D01*
Y30870D02*
X37610Y30780D01*
X17666Y30680D02*
X21647D01*
X21759Y30567D01*
X22385D01*
X22638Y30315D01*
X26950Y27700D02*
Y29140D01*
X27510Y29700D01*
Y30750D01*
X27168Y31092D02*
X27510Y30750D01*
X25942Y31092D02*
X27168D01*
X26669Y29700D02*
X26929Y29961D01*
X23061Y31260D02*
X24331D01*
X24629Y30961D01*
Y30381D02*
Y30961D01*
Y30381D02*
X25310Y29700D01*
X26669D01*
X17598Y30748D02*
X17666Y30680D01*
X17283Y30118D02*
X17480Y30315D01*
X22126D01*
X25910Y30160D02*
Y31060D01*
X25942Y31092D01*
X20236Y25984D02*
X27756Y18465D01*
D35*
X34449Y18504D02*
D03*
X28898Y18465D02*
D03*
X18622Y31260D02*
D03*
X33740Y23504D02*
D03*
X34882Y19843D02*
D03*
X37559Y21299D02*
D03*
X37362Y23937D02*
D03*
X26220Y28898D02*
D03*
X18563Y33878D02*
D03*
X26929Y29961D02*
D03*
X19173Y34449D02*
D03*
X21535Y33819D02*
D03*
X22520Y31220D02*
D03*
X25942Y31092D02*
D03*
X26950Y27700D02*
D03*
X29500D02*
D03*
X32250D02*
D03*
X32161Y31289D02*
D03*
X32200Y33850D02*
D03*
X30100Y33500D02*
D03*
X27550Y33750D02*
D03*
X25900Y33250D02*
D03*
X25866Y28268D02*
D03*
X24685Y25315D02*
D03*
X27638Y23583D02*
D03*
X29252Y24252D02*
D03*
X28504Y25079D02*
D03*
X29685D02*
D03*
X29882Y22874D02*
D03*
X32441Y24961D02*
D03*
X22126Y30140D02*
D03*
X23898Y30315D02*
D03*
X17323Y30079D02*
D03*
X17638Y30787D02*
D03*
X25910Y30160D02*
D03*
D36*
X34646Y23795D02*
D03*
Y22795D02*
D03*
Y21795D02*
D03*
X35276Y33748D02*
D03*
Y34748D02*
D03*
Y35748D02*
D03*
Y28252D02*
D03*
Y29252D02*
D03*
Y30252D02*
D03*
X31551Y37165D02*
D03*
X30551D02*
D03*
X29551D02*
D03*
X27244D02*
D03*
X26244D02*
D03*
X25244D02*
D03*
X36850Y33780D02*
D03*
Y34780D02*
D03*
Y35780D02*
D03*
Y28276D02*
D03*
Y29276D02*
D03*
Y30276D02*
D03*
X27244Y35945D02*
D03*
X26244D02*
D03*
X25244D02*
D03*
X31535Y35984D02*
D03*
X30535D02*
D03*
X29535D02*
D03*
D37*
X34646Y20795D02*
D03*
X35276Y36748D02*
D03*
Y31252D02*
D03*
X36850Y36780D02*
D03*
Y31276D02*
D03*
D38*
X26450Y25600D02*
D03*
X25859D02*
D03*
X34200Y26845D02*
D03*
Y26255D02*
D03*
D39*
X15177Y31585D02*
D03*
Y28652D02*
D03*
D40*
X13681Y31644D02*
D03*
Y28593D02*
D03*
D41*
X14764Y31102D02*
D03*
Y29134D02*
D03*
D42*
X28551Y37165D02*
D03*
X24244D02*
D03*
Y35945D02*
D03*
X28535Y35984D02*
D03*
D43*
X38719Y22844D02*
D03*
Y26206D02*
D03*
X36857Y22844D02*
D03*
X38754Y18689D02*
D03*
Y22051D02*
D03*
X36892Y18689D02*
D03*
Y22051D02*
D03*
X36857Y26206D02*
D03*
D44*
X36680Y25470D02*
D03*
Y23580D02*
D03*
Y25155D02*
D03*
Y23895D02*
D03*
Y24840D02*
D03*
Y24210D02*
D03*
X36404Y25627D02*
D03*
Y23423D02*
D03*
Y25313D02*
D03*
Y23738D02*
D03*
Y24998D02*
D03*
Y24053D02*
D03*
Y24683D02*
D03*
Y24368D02*
D03*
X36715Y21315D02*
D03*
Y19425D02*
D03*
Y21000D02*
D03*
Y19740D02*
D03*
Y20685D02*
D03*
Y20055D02*
D03*
X36439Y21472D02*
D03*
Y19268D02*
D03*
Y21157D02*
D03*
Y19583D02*
D03*
Y20842D02*
D03*
Y19898D02*
D03*
Y20527D02*
D03*
Y20213D02*
D03*
M02*
