G04 Layer_Physical_Order=1*
G04 Layer_Color=255*
%FSLAX24Y24*%
%MOIN*%
G70*
G01*
G75*
%ADD10R,0.0579X0.0311*%
%ADD11R,0.0236X0.0256*%
%ADD12R,0.0244X0.0236*%
%ADD13R,0.0394X0.0433*%
%ADD14R,0.0118X0.0581*%
%ADD15R,0.0581X0.0118*%
%ADD16R,0.0236X0.0244*%
%ADD17R,0.0752X0.1705*%
%ADD18R,0.1705X0.0752*%
%ADD19R,0.0472X0.0236*%
%ADD20R,0.0394X0.0354*%
%ADD21R,0.0669X0.0866*%
%ADD22R,0.0335X0.0157*%
%ADD23R,0.0492X0.0669*%
%ADD24R,0.0669X0.0492*%
%ADD25R,0.0512X0.0177*%
%ADD26C,0.0118*%
G04:AMPARAMS|DCode=27|XSize=78.7mil|YSize=78.7mil|CornerRadius=0mil|HoleSize=0mil|Usage=FLASHONLY|Rotation=270.000|XOffset=0mil|YOffset=0mil|HoleType=Round|Shape=RoundedRectangle|*
%AMROUNDEDRECTD27*
21,1,0.0787,0.0787,0,0,270.0*
21,1,0.0787,0.0787,0,0,270.0*
1,1,0.0000,-0.0394,-0.0394*
1,1,0.0000,-0.0394,0.0394*
1,1,0.0000,0.0394,0.0394*
1,1,0.0000,0.0394,-0.0394*
%
%ADD27ROUNDEDRECTD27*%
%ADD28R,0.0276X0.0276*%
%ADD29R,0.0780X0.0220*%
%ADD30R,0.0394X0.0079*%
%ADD31R,0.0472X0.0118*%
%ADD32R,0.0311X0.0579*%
%ADD33R,0.0602X0.1071*%
%ADD34C,0.0100*%
%ADD35C,0.0600*%
%ADD36C,0.0591*%
%ADD37R,0.0591X0.0591*%
%ADD38C,0.0433*%
%ADD39O,0.0787X0.0571*%
%ADD40O,0.0709X0.0453*%
%ADD41C,0.0315*%
%ADD42R,0.0591X0.0591*%
%ADD43O,0.0630X0.0394*%
%ADD44C,0.0256*%
G36*
X29232Y22835D02*
X29449D01*
Y22717D01*
X29232Y22712D01*
X29187Y22730D01*
X29168Y22776D01*
X29187Y22821D01*
X29232Y22840D01*
Y22835D01*
D02*
G37*
G36*
X28214Y22821D02*
X28233Y22776D01*
X28214Y22730D01*
X28169Y22712D01*
Y22717D01*
X27953D01*
Y22835D01*
X28169Y22840D01*
X28214Y22821D01*
D02*
G37*
G36*
X29232Y23031D02*
X29449D01*
Y22913D01*
X29232Y22909D01*
X29187Y22927D01*
X29168Y22972D01*
X29187Y23018D01*
X29232Y23036D01*
Y23031D01*
D02*
G37*
G36*
X28214Y23018D02*
X28233Y22972D01*
X28214Y22927D01*
X28169Y22909D01*
Y22913D01*
X27953D01*
Y23031D01*
X28169Y23036D01*
X28214Y23018D01*
D02*
G37*
G36*
X28648Y22585D02*
X28666Y22539D01*
X28661D01*
Y22323D01*
X28543D01*
X28538Y22539D01*
X28557Y22585D01*
X28602Y22603D01*
X28648Y22585D01*
D02*
G37*
G36*
X28451D02*
X28469Y22539D01*
X28465D01*
Y22323D01*
X28346D01*
X28342Y22539D01*
X28360Y22585D01*
X28406Y22603D01*
X28451Y22585D01*
D02*
G37*
G36*
X29041D02*
X29060Y22539D01*
X29055D01*
Y22323D01*
X28937D01*
X28932Y22539D01*
X28951Y22585D01*
X28996Y22603D01*
X29041Y22585D01*
D02*
G37*
G36*
X28844D02*
X28863Y22539D01*
X28858D01*
Y22323D01*
X28740D01*
X28735Y22539D01*
X28754Y22585D01*
X28799Y22603D01*
X28844Y22585D01*
D02*
G37*
G36*
X28666Y23602D02*
X28648Y23557D01*
X28602Y23538D01*
X28557Y23557D01*
X28538Y23602D01*
X28543D01*
Y23819D01*
X28661D01*
X28666Y23602D01*
D02*
G37*
G36*
X28469D02*
X28451Y23557D01*
X28406Y23538D01*
X28360Y23557D01*
X28342Y23602D01*
X28346D01*
Y23819D01*
X28465D01*
X28469Y23602D01*
D02*
G37*
G36*
X29060D02*
X29041Y23557D01*
X28996Y23538D01*
X28951Y23557D01*
X28932Y23602D01*
X28937D01*
Y23819D01*
X29055D01*
X29060Y23602D01*
D02*
G37*
G36*
X28863D02*
X28844Y23557D01*
X28799Y23538D01*
X28754Y23557D01*
X28735Y23602D01*
X28740D01*
Y23819D01*
X28858D01*
X28863Y23602D01*
D02*
G37*
G36*
X29232Y23228D02*
X29449D01*
Y23110D01*
X29232Y23105D01*
X29187Y23124D01*
X29168Y23169D01*
X29187Y23214D01*
X29232Y23233D01*
Y23228D01*
D02*
G37*
G36*
X28214Y23214D02*
X28233Y23169D01*
X28214Y23124D01*
X28169Y23105D01*
Y23110D01*
X27953D01*
Y23228D01*
X28169Y23233D01*
X28214Y23214D01*
D02*
G37*
G36*
X29232Y23425D02*
X29449D01*
Y23307D01*
X29232Y23302D01*
X29187Y23321D01*
X29168Y23366D01*
X29187Y23411D01*
X29232Y23430D01*
Y23425D01*
D02*
G37*
G36*
X28214Y23411D02*
X28233Y23366D01*
X28214Y23321D01*
X28169Y23302D01*
Y23307D01*
X27953D01*
Y23425D01*
X28169Y23430D01*
X28214Y23411D01*
D02*
G37*
D10*
X21575Y34642D02*
D03*
Y35496D02*
D03*
X22800Y28348D02*
D03*
Y29202D02*
D03*
X21300Y30652D02*
D03*
Y29798D02*
D03*
X20500Y30652D02*
D03*
Y29798D02*
D03*
X18900Y30652D02*
D03*
Y29798D02*
D03*
X19700Y30652D02*
D03*
Y29798D02*
D03*
X21900Y32627D02*
D03*
Y31773D02*
D03*
X23600Y29202D02*
D03*
Y28348D02*
D03*
X17900Y31748D02*
D03*
Y32602D02*
D03*
X17550Y26498D02*
D03*
Y27352D02*
D03*
D11*
X33701Y18504D02*
D03*
Y19504D02*
D03*
X29528Y18504D02*
D03*
Y19504D02*
D03*
D12*
X33189Y22811D02*
D03*
Y23173D02*
D03*
X32441Y36669D02*
D03*
Y37032D02*
D03*
X27047Y24803D02*
D03*
Y24441D02*
D03*
X31772Y25598D02*
D03*
Y25236D02*
D03*
X24370Y31591D02*
D03*
Y31953D02*
D03*
D13*
X32441Y35531D02*
D03*
Y36201D02*
D03*
X26890Y23917D02*
D03*
Y23248D02*
D03*
X31772Y24764D02*
D03*
Y24094D02*
D03*
X30551Y25236D02*
D03*
Y24567D02*
D03*
D14*
X25755Y34828D02*
D03*
X25952D02*
D03*
X26149D02*
D03*
X26346D02*
D03*
X26543D02*
D03*
X26739D02*
D03*
X26936D02*
D03*
X27133D02*
D03*
X27330D02*
D03*
X27527D02*
D03*
X27724D02*
D03*
X27920D02*
D03*
X28117D02*
D03*
X28314D02*
D03*
X28511D02*
D03*
X28708D02*
D03*
X28905D02*
D03*
X29102D02*
D03*
X29298D02*
D03*
X29495D02*
D03*
X29692D02*
D03*
X29889D02*
D03*
X30086D02*
D03*
X30283D02*
D03*
X30480D02*
D03*
X30676D02*
D03*
X30873D02*
D03*
X31070D02*
D03*
X31267D02*
D03*
X31464D02*
D03*
X31661D02*
D03*
X31857D02*
D03*
X32054D02*
D03*
X32251D02*
D03*
X32448D02*
D03*
X32645D02*
D03*
Y26372D02*
D03*
X32448D02*
D03*
X32251D02*
D03*
X32054D02*
D03*
X31857D02*
D03*
X31661D02*
D03*
X31464D02*
D03*
X31267D02*
D03*
X31070D02*
D03*
X30873D02*
D03*
X30676D02*
D03*
X30480D02*
D03*
X30283D02*
D03*
X30086D02*
D03*
X29889D02*
D03*
X29692D02*
D03*
X29495D02*
D03*
X29298D02*
D03*
X29102D02*
D03*
X28905D02*
D03*
X28708D02*
D03*
X28511D02*
D03*
X28314D02*
D03*
X28117D02*
D03*
X27920D02*
D03*
X27724D02*
D03*
X27527D02*
D03*
X27330D02*
D03*
X27133D02*
D03*
X26936D02*
D03*
X26739D02*
D03*
X26543D02*
D03*
X26346D02*
D03*
X26149D02*
D03*
X25952D02*
D03*
X25755D02*
D03*
D15*
X33428Y34045D02*
D03*
Y33848D02*
D03*
Y33651D02*
D03*
Y33454D02*
D03*
Y33257D02*
D03*
Y33061D02*
D03*
Y32864D02*
D03*
Y32667D02*
D03*
Y32470D02*
D03*
Y32273D02*
D03*
Y32076D02*
D03*
Y31880D02*
D03*
Y31683D02*
D03*
Y31486D02*
D03*
Y31289D02*
D03*
Y31092D02*
D03*
Y30895D02*
D03*
Y30698D02*
D03*
Y30502D02*
D03*
Y30305D02*
D03*
Y30108D02*
D03*
Y29911D02*
D03*
Y29714D02*
D03*
Y29517D02*
D03*
Y29320D02*
D03*
Y29124D02*
D03*
Y28927D02*
D03*
Y28730D02*
D03*
Y28533D02*
D03*
Y28336D02*
D03*
Y28139D02*
D03*
Y27943D02*
D03*
Y27746D02*
D03*
Y27549D02*
D03*
Y27352D02*
D03*
Y27155D02*
D03*
X24972D02*
D03*
Y27352D02*
D03*
Y27549D02*
D03*
Y27746D02*
D03*
Y27943D02*
D03*
Y28139D02*
D03*
Y28336D02*
D03*
Y28533D02*
D03*
Y28730D02*
D03*
Y28927D02*
D03*
Y29124D02*
D03*
Y29320D02*
D03*
Y29517D02*
D03*
Y29714D02*
D03*
Y29911D02*
D03*
Y30108D02*
D03*
Y30305D02*
D03*
Y30502D02*
D03*
Y30698D02*
D03*
Y30895D02*
D03*
Y31092D02*
D03*
Y31289D02*
D03*
Y31486D02*
D03*
Y31683D02*
D03*
Y31880D02*
D03*
Y32076D02*
D03*
Y32273D02*
D03*
Y32470D02*
D03*
Y32667D02*
D03*
Y32864D02*
D03*
Y33061D02*
D03*
Y33257D02*
D03*
Y33454D02*
D03*
Y33651D02*
D03*
Y33848D02*
D03*
Y34045D02*
D03*
D16*
X21169Y29150D02*
D03*
X21531D02*
D03*
X15661Y30354D02*
D03*
X16024D02*
D03*
X29882Y25732D02*
D03*
X30244D02*
D03*
X15646Y29921D02*
D03*
X16008D02*
D03*
D17*
X18900Y28500D02*
D03*
X20455D02*
D03*
D18*
X21950Y25995D02*
D03*
Y27550D02*
D03*
D19*
X19862Y33878D02*
D03*
Y34252D02*
D03*
Y34626D02*
D03*
X20846D02*
D03*
Y34252D02*
D03*
Y33878D02*
D03*
D20*
X18650Y31918D02*
D03*
Y32450D02*
D03*
X19250Y32482D02*
D03*
Y31950D02*
D03*
D21*
X23150Y32300D02*
D03*
D22*
X22579Y31926D02*
D03*
Y32300D02*
D03*
Y32674D02*
D03*
X23721D02*
D03*
Y32300D02*
D03*
Y31926D02*
D03*
D23*
X19950Y31800D02*
D03*
X21150D02*
D03*
X19951Y32953D02*
D03*
X21152D02*
D03*
D24*
X16535Y29144D02*
D03*
Y27943D02*
D03*
X17795Y29144D02*
D03*
Y27943D02*
D03*
D25*
X15177Y30630D02*
D03*
Y29606D02*
D03*
Y30374D02*
D03*
Y30118D02*
D03*
Y29862D02*
D03*
D26*
X29311Y22776D02*
D03*
Y22972D02*
D03*
Y23169D02*
D03*
Y23366D02*
D03*
X28996Y23681D02*
D03*
X28799D02*
D03*
X28602D02*
D03*
X28406D02*
D03*
X28091Y23366D02*
D03*
Y23169D02*
D03*
Y22972D02*
D03*
Y22776D02*
D03*
X28406Y22461D02*
D03*
X28602D02*
D03*
X28799D02*
D03*
X28996D02*
D03*
D27*
X28701Y23071D02*
D03*
D28*
X26240Y20974D02*
D03*
Y22726D02*
D03*
X27618D02*
D03*
Y20974D02*
D03*
D29*
X31157Y22443D02*
D03*
Y21943D02*
D03*
Y21443D02*
D03*
Y20943D02*
D03*
X33017D02*
D03*
Y21443D02*
D03*
Y21943D02*
D03*
Y22443D02*
D03*
D30*
X37715Y24525D02*
D03*
X38936D02*
D03*
X37750Y20370D02*
D03*
X38970D02*
D03*
D31*
X35912Y23442D02*
D03*
Y23639D02*
D03*
Y23836D02*
D03*
Y24033D02*
D03*
Y24230D02*
D03*
Y24427D02*
D03*
Y24624D02*
D03*
Y24820D02*
D03*
Y25017D02*
D03*
Y25214D02*
D03*
Y25411D02*
D03*
Y25608D02*
D03*
X35947Y19287D02*
D03*
Y19484D02*
D03*
Y19681D02*
D03*
Y19878D02*
D03*
Y20075D02*
D03*
Y20272D02*
D03*
Y20468D02*
D03*
Y20665D02*
D03*
Y20862D02*
D03*
Y21059D02*
D03*
Y21256D02*
D03*
Y21453D02*
D03*
D32*
X22102Y28500D02*
D03*
X21248D02*
D03*
X22526Y25079D02*
D03*
X23380D02*
D03*
X23627Y33350D02*
D03*
X22773D02*
D03*
D33*
X20338Y35660D02*
D03*
X19282D02*
D03*
D34*
X21239Y31800D02*
Y33013D01*
X21825Y31800D02*
X21951Y31926D01*
X21063Y35394D02*
X21575D01*
X21181Y33071D02*
X21239Y33013D01*
X36386Y25610D02*
X36406Y25630D01*
X36260Y21496D02*
X36445D01*
X35579Y19311D02*
X36425D01*
X35394Y21457D02*
X36220D01*
X27145Y25395D02*
Y26905D01*
X24550Y32650D02*
X25500D01*
X21969Y32593D02*
Y34252D01*
X21900Y32525D02*
X22025D01*
X21900D02*
X21969Y32593D01*
X24555Y30705D02*
X25495D01*
X18900Y30550D02*
X22637D01*
X18650Y30800D02*
X18900Y30550D01*
X17550Y26600D02*
X20250D01*
X18582Y30550D02*
X18900D01*
X36425Y19311D02*
X36445Y19291D01*
X19861Y31800D02*
Y32650D01*
X18900Y29926D02*
X18925Y29900D01*
X15138Y30354D02*
X15661D01*
X15118Y30079D02*
X15433D01*
X32858Y23504D02*
X33189Y23173D01*
X32362Y23504D02*
X32858D01*
X31772Y24094D02*
X32362Y23504D01*
X33701Y18504D02*
X34449D01*
X28976Y21417D02*
X29002Y21443D01*
X31157D01*
Y20943D02*
X31691D01*
X31732Y20984D01*
Y21614D01*
X31654Y21693D02*
X31732Y21614D01*
X30591Y21693D02*
X31654D01*
X30591D02*
Y22205D01*
X28976Y19291D02*
Y21417D01*
Y19291D02*
X29528Y18740D01*
Y18504D02*
Y18740D01*
X28425Y17283D02*
X28740Y16968D01*
X28425Y17283D02*
Y22087D01*
X29488Y18465D02*
X29528Y18504D01*
X28898Y18465D02*
X29488D01*
X18255Y30800D02*
X18650D01*
X17900Y31155D02*
X18255Y30800D01*
X18650Y31547D02*
Y31918D01*
X30591Y22205D02*
X31772D01*
Y22598D01*
X31267Y23103D02*
X31772Y22598D01*
X31267Y23103D02*
Y26372D01*
X31070Y25741D02*
Y26372D01*
Y25741D02*
X31157Y25654D01*
Y22443D02*
Y25654D01*
X30157Y22087D02*
X30354D01*
X28425D02*
X30157D01*
X33428Y27352D02*
X39420D01*
X30157Y22087D02*
X30157Y22087D01*
X31772Y24764D02*
Y25236D01*
X29764Y25945D02*
X30551D01*
X30906Y25591D01*
X36969Y20709D02*
X37559Y21299D01*
X29311Y23366D02*
X30354D01*
Y22087D02*
Y23366D01*
X32819Y23173D02*
X33189D01*
X32402Y22756D02*
X32819Y23173D01*
X32402Y21996D02*
Y22756D01*
X32348Y21943D02*
X32402Y21996D01*
X31157Y21943D02*
X32348D01*
X35197Y24449D02*
X35512Y24134D01*
X34094Y24449D02*
X35197D01*
X33189Y23543D02*
X34094Y24449D01*
X33189Y23173D02*
Y23543D01*
X33017Y22443D02*
X33189Y22615D01*
Y22811D01*
X33937Y22047D02*
Y22992D01*
X33833Y21943D02*
X33937Y22047D01*
X33017Y21943D02*
X33833D01*
X33701Y23228D02*
X33937Y22992D01*
X34055Y21457D02*
Y23205D01*
Y19843D02*
Y21457D01*
X34041Y21443D02*
X34055Y21457D01*
X33017Y21443D02*
X34041D01*
X34732Y20795D02*
X35394Y21457D01*
X34646Y20795D02*
X34732D01*
X34291Y20236D02*
X34764Y19764D01*
X34252Y20236D02*
X34291D01*
X37087Y24213D02*
X37205Y24094D01*
X35331Y22480D02*
X38268D01*
Y25157D01*
X36220Y21457D02*
X36260Y21496D01*
X34882Y19016D02*
X36457D01*
X36720Y19280D01*
X34055Y19843D02*
X34882Y19016D01*
X34055Y23205D02*
X34646Y23795D01*
X34252Y20236D02*
Y22402D01*
X34646Y22795D01*
X36260D02*
X36969Y23504D01*
X36299Y22992D02*
X36681Y23374D01*
X35354Y22992D02*
X36299D01*
X34646Y21795D02*
X35331Y22480D01*
X36669Y21795D02*
X36720Y21744D01*
X34646Y21795D02*
X36669D01*
X34646Y23701D02*
X35354Y22992D01*
X34646Y23701D02*
Y23795D01*
X36969Y23504D02*
Y23610D01*
X34646Y22795D02*
X36260D01*
X13681Y28593D02*
X13740Y28652D01*
X15177D01*
X25244Y35945D02*
Y37165D01*
X24972Y34045D02*
Y34476D01*
X24252Y35197D02*
X24972Y34476D01*
X24252Y35197D02*
Y35394D01*
X24244Y35945D02*
X24252Y35937D01*
Y35394D02*
Y35937D01*
Y35394D02*
X25472D01*
X25630Y35551D01*
Y37520D01*
X25392D02*
X25630D01*
X25391Y37521D02*
X25392Y37520D01*
X25097Y37521D02*
X25391D01*
X24742Y37165D02*
X25097Y37521D01*
X24244Y37165D02*
X24742D01*
X27920Y34828D02*
Y35229D01*
X27874Y35276D02*
X27920Y35229D01*
X26693Y35276D02*
X27874D01*
X26575Y35394D02*
X26693Y35276D01*
X26121Y35394D02*
X26575D01*
X28031D02*
X28117Y35308D01*
Y34828D02*
Y35308D01*
X28110Y35472D02*
X28504D01*
X28031Y35551D02*
X28110Y35472D01*
X26850Y35551D02*
X28031D01*
X28150Y35591D02*
Y35945D01*
Y35591D02*
X28701D01*
X28708Y35583D01*
X25779Y35735D02*
X26121Y35394D01*
X25889Y35781D02*
Y36092D01*
X25779Y35735D02*
Y36138D01*
X26051Y36410D01*
X26213D01*
X26244Y36441D01*
Y37165D01*
X26732Y35394D02*
X28031D01*
X26732D02*
Y35551D01*
X26119D02*
X26732D01*
X25889Y35781D02*
X26119Y35551D01*
X25889Y36092D02*
X26097Y36300D01*
X26379D01*
X27244Y37165D01*
X28504Y34835D02*
X28511Y34828D01*
X28504Y34835D02*
Y35472D01*
X26850Y35551D02*
Y35945D01*
X26244D02*
X26850D01*
X28708Y34828D02*
Y35583D01*
X27244Y35945D02*
X28150D01*
X29660Y37559D02*
X29960Y37259D01*
X29370Y37559D02*
X29660D01*
X29960Y35746D02*
X29962Y35745D01*
X29960Y35746D02*
Y37259D01*
X28976Y37165D02*
X29370Y37559D01*
X28551Y37165D02*
X28976D01*
X28535Y35984D02*
X28551Y36000D01*
X31661Y34828D02*
Y35308D01*
X31575Y35394D02*
X31661Y35308D01*
X31189Y35394D02*
X31575D01*
X31102Y35481D02*
X31189Y35394D01*
X30381Y35481D02*
X31102D01*
X30070Y35792D02*
X30381Y35481D01*
X30070Y35792D02*
Y36249D01*
X30316Y36340D02*
X30725D01*
X30180Y36204D02*
X30316Y36340D01*
X30070Y36249D02*
X30270Y36450D01*
X30544D01*
X30551Y36457D01*
Y37165D01*
X31857Y34828D02*
Y35269D01*
X31614Y35512D02*
X31857Y35269D01*
X31260Y35512D02*
X31614D01*
X31181Y35591D02*
X31260Y35512D01*
X30427Y35591D02*
X31181D01*
X30180Y35837D02*
X30427Y35591D01*
X30180Y35837D02*
Y36204D01*
X30725Y36340D02*
X31551Y37165D01*
X29535Y35984D02*
X29551Y36000D01*
Y37165D01*
X32441Y37032D02*
Y37638D01*
X32283Y37795D02*
X32441Y37638D01*
X28701Y37795D02*
X32283D01*
X28551Y37646D02*
X28701Y37795D01*
X28551Y37165D02*
Y37646D01*
X30283Y34828D02*
Y35308D01*
X32054Y34828D02*
Y35229D01*
X31654Y35629D02*
X32054Y35229D01*
X31388Y35629D02*
X31654D01*
X31033Y35984D02*
X31388Y35629D01*
X30535Y35984D02*
X31033D01*
X32251Y34828D02*
Y35188D01*
X31535Y35904D02*
X32251Y35188D01*
X31535Y35904D02*
Y35984D01*
X36819Y35748D02*
X36850Y35780D01*
X35276Y35748D02*
X36819D01*
X34067Y33257D02*
X34246Y33079D01*
X33428Y33257D02*
X34067D01*
X34246Y33079D02*
X35912D01*
X35976Y33143D01*
Y33408D01*
X36348Y33780D01*
X36850D01*
X33428Y33454D02*
X34026D01*
X34291Y33189D01*
X35866D01*
Y33795D01*
X36850Y34780D01*
X35116Y31092D02*
X35276Y31252D01*
X33428Y31092D02*
X35116D01*
X33420Y31100D02*
X33428Y31092D01*
X32750Y31100D02*
X33420D01*
X34098Y28927D02*
X35151Y27874D01*
X33428Y28927D02*
X34098D01*
X33428Y28730D02*
X34105D01*
X35197Y27638D01*
X35630D01*
X36268Y28276D01*
X36850D01*
X35151Y27874D02*
X35512D01*
X35945Y28307D01*
Y29213D01*
X36008Y29276D01*
X36850D01*
X33428Y29320D02*
X33966D01*
X34291Y29646D01*
X35787D01*
X35827Y29685D01*
Y28504D02*
Y29685D01*
X35575Y28252D02*
X35827Y28504D01*
X35276Y28252D02*
X35575D01*
X33428Y29124D02*
X33966D01*
X34094Y29252D01*
X35276D01*
X32441Y34835D02*
X32448Y34828D01*
X32441Y34835D02*
Y35531D01*
Y36201D02*
Y36669D01*
X24370Y31953D02*
X24567D01*
X25495Y33651D02*
Y33848D01*
Y34045D01*
X25554Y33454D02*
X25750Y33650D01*
X24500Y33350D02*
X24604Y33454D01*
X24276Y32970D02*
X24563Y33257D01*
X22875Y32970D02*
X24276D01*
X22350Y32100D02*
X22950D01*
X22350D02*
Y32200D01*
X22025Y32525D02*
X22350Y32200D01*
X22950Y32100D02*
X23150Y32300D01*
X24972Y29320D02*
X26289D01*
X26929Y29961D01*
X18563Y33878D02*
X19862D01*
X19291Y34252D02*
X19862D01*
X20394Y34882D02*
X20846D01*
X20394Y33661D02*
Y34882D01*
X20846D02*
Y35177D01*
Y34626D02*
Y34882D01*
X21969Y34252D02*
X22047Y34331D01*
X21575Y34252D02*
X21969D01*
X20846Y35177D02*
X21063Y35394D01*
X21476Y33878D02*
X21535Y33819D01*
X20846Y33878D02*
X21476D01*
X22638Y31339D02*
X24567D01*
Y31953D01*
X24134Y32300D02*
X24200D01*
X23721D02*
X24134D01*
Y31614D02*
Y32300D01*
Y31614D02*
X24157Y31591D01*
X24370D01*
Y31953D02*
Y32205D01*
X24635Y32470D01*
X24972D01*
X22579Y32674D02*
X22875Y32970D01*
X32645Y26372D02*
X33678D01*
X33737Y26845D02*
X34200D01*
X18650Y32450D02*
X18681Y32482D01*
X19250D01*
X19711Y31950D02*
X19861Y31800D01*
X19250Y31950D02*
X19711D01*
X21951Y31926D02*
X22579D01*
X21239Y31800D02*
X21825D01*
X28985Y33050D02*
X31550D01*
X32750Y30800D02*
Y31100D01*
Y28150D02*
Y30800D01*
X31550D02*
X32750D01*
X31550D02*
Y31650D01*
X32895Y32995D01*
X30050Y28100D02*
X30100Y28150D01*
X32750D01*
Y27500D02*
Y28150D01*
X32445Y27195D02*
X32750Y27500D01*
X32445Y26905D02*
Y27195D01*
X29695Y26905D02*
X30050Y27259D01*
Y28100D01*
X28341D02*
X30050D01*
X27145Y26905D02*
X28341Y28100D01*
X26350Y32850D02*
X26400Y32800D01*
Y30650D02*
Y32800D01*
X25495Y30705D02*
Y30895D01*
X25500Y32850D02*
X26350D01*
X25500D02*
Y33050D01*
Y32650D02*
Y32850D01*
X26350D02*
Y33450D01*
X26150Y33650D02*
X26350Y33450D01*
X25750Y33650D02*
X26150D01*
X25496Y33454D02*
X25554D01*
X24972Y33848D02*
X25495D01*
Y33455D02*
Y33651D01*
Y33455D02*
X25496Y33454D01*
X24972Y31092D02*
X25942D01*
X24200Y32300D02*
X24550Y32650D01*
X24140Y27760D02*
X24549D01*
X23600Y28000D02*
X25250Y26350D01*
X26936Y26372D02*
Y27486D01*
X29495Y26372D02*
Y27495D01*
X32251Y26372D02*
Y27499D01*
X32161Y31289D02*
X33428D01*
X32405Y34045D02*
X33428D01*
X24972Y33257D02*
X25693D01*
X23150Y32300D02*
X23721D01*
X22579D02*
Y32674D01*
X20855Y25995D02*
X21950D01*
X20250Y26600D02*
X20855Y25995D01*
X26750Y25000D02*
X27145Y25395D01*
X25390Y25254D02*
X25644Y25000D01*
X25500Y25300D02*
Y26200D01*
X25390Y25254D02*
Y25910D01*
X25305Y25995D02*
X25390Y25910D01*
X21950Y25995D02*
X25305D01*
X22579Y31771D02*
Y31926D01*
Y31771D02*
X22600Y31750D01*
X23700D01*
Y31905D01*
X23721Y31926D01*
X24972Y33061D02*
X24983Y33050D01*
X24972Y32864D02*
X24986Y32850D01*
X32448Y26372D02*
Y26902D01*
X32445Y26905D02*
X32448Y26902D01*
X29692Y26372D02*
X29695Y26376D01*
Y26905D01*
X24972Y29517D02*
X24985Y29505D01*
X24972Y30895D02*
X25495D01*
X26550Y25150D02*
X26750Y25350D01*
X25650Y25150D02*
X26550D01*
X26739Y26372D02*
X26750Y26362D01*
X25150Y26200D02*
X25500D01*
X25859Y25909D02*
X25904Y25954D01*
X25500Y25300D02*
X25650Y25150D01*
X26450Y25600D02*
X26543Y25693D01*
X25859Y25600D02*
Y25909D01*
X20450Y27250D02*
X20900Y26800D01*
X18439Y29239D02*
X18900Y28778D01*
X24046Y29610D02*
X24360Y29296D01*
X23155Y29610D02*
X24046D01*
X22995Y29450D02*
X23155Y29610D01*
X20500Y29450D02*
X22995D01*
X20455Y29405D02*
X20500Y29450D01*
X20455Y28500D02*
Y29405D01*
X22750Y29150D02*
X22800Y29100D01*
X21531Y29150D02*
X22750D01*
X23200Y29500D02*
X24000D01*
X22950Y28450D02*
X23600Y29100D01*
X25733Y26350D02*
X25755Y26372D01*
X24250Y27950D02*
X24965D01*
X24549Y27760D02*
X24958D01*
X24550Y27550D02*
X24551Y27549D01*
X24549Y27760D02*
X24550Y27759D01*
X24958Y27760D02*
X24972Y27746D01*
X24050Y29100D02*
X24140Y29010D01*
X24965Y27950D02*
X24972Y27943D01*
X24000Y29500D02*
X24250Y29250D01*
X20900Y29150D02*
X21169D01*
X20900Y28945D02*
Y29150D01*
X20455Y28500D02*
X20900Y28945D01*
X18900Y28500D02*
Y28778D01*
X22750Y28500D02*
X22800Y28450D01*
X21950Y27550D02*
X22000Y27600D01*
X15118Y30335D02*
X15138Y30354D01*
X15433Y30079D02*
X15591Y29921D01*
X15646D01*
X15685D01*
X20900Y26800D02*
X24550D01*
X25150Y26200D01*
X24985Y29505D02*
X26299D01*
X26400Y29606D02*
Y30650D01*
X26299Y29505D02*
X26400Y29606D01*
X25495Y30895D02*
X25741Y30650D01*
X26400D01*
X24538Y29911D02*
X24972D01*
X24538Y28908D02*
Y29911D01*
Y28908D02*
X24954D01*
X24972Y28927D01*
X24140Y27760D02*
Y29010D01*
X24250Y27950D02*
Y29250D01*
X24972Y29124D02*
X25994D01*
X26220Y28898D01*
X24360Y28190D02*
Y29296D01*
Y28190D02*
X24411Y28139D01*
X24972D01*
X24358Y30108D02*
X24972D01*
X25483Y28927D02*
X25709Y28701D01*
Y28425D02*
Y28701D01*
X18000Y29239D02*
X18439D01*
X16496Y27559D02*
X16806Y27250D01*
X20394Y33661D02*
X21102Y32953D01*
X21152D01*
X25709Y28425D02*
X25866Y28268D01*
X23878Y25315D02*
X24685D01*
X23642Y25079D02*
X23878Y25315D01*
X21969Y25079D02*
Y25976D01*
X21950Y25995D02*
X21969Y25976D01*
X27717Y34317D02*
X27724Y34324D01*
X24972Y34045D02*
X25495D01*
X26428D02*
X27205Y33268D01*
X28767D01*
X25495Y34045D02*
X26428D01*
X28767Y33268D02*
X28985Y33050D01*
X28799Y22972D02*
X29311D01*
X28701Y23071D02*
X28799Y22972D01*
X28406Y23681D02*
Y24469D01*
X29252Y24252D02*
Y25236D01*
X24972Y33651D02*
X25495D01*
X24972Y28927D02*
X25483D01*
X28708Y25780D02*
X29252Y25236D01*
X27717Y34317D02*
X28767Y33268D01*
X30283Y34317D02*
X31550Y33050D01*
X24983D02*
X25500D01*
X24986Y32850D02*
X25500D01*
X27047Y24803D02*
X27724Y25480D01*
X29298Y25977D02*
X29543Y25732D01*
X29882D01*
X31464Y25906D02*
X31772Y25598D01*
X28071Y24803D02*
X28406Y24469D01*
X28071Y24803D02*
Y25630D01*
X28314Y25873D01*
X28511Y25741D02*
X29094Y25157D01*
X28976Y25039D02*
X29094Y25157D01*
X28976Y24646D02*
Y25039D01*
X28799Y24469D02*
X28976Y24646D01*
X28799Y23681D02*
Y24469D01*
X28583Y23740D02*
Y24961D01*
X28708Y25780D02*
Y26372D01*
X28314Y25873D02*
Y26372D01*
X24563Y33257D02*
X24972D01*
X27527Y33923D02*
Y34828D01*
X30086Y33764D02*
Y34828D01*
X26750Y25350D02*
Y26362D01*
X29298Y25977D02*
Y26372D01*
X24551Y27549D02*
X24972D01*
X24550Y27550D02*
Y27759D01*
X27724Y25480D02*
Y26372D01*
X28511Y25741D02*
Y26372D01*
X26543Y25693D02*
Y26372D01*
X25250Y26350D02*
X25733D01*
X24972Y33454D02*
X25496D01*
X27724Y34324D02*
Y34828D01*
X30283Y34317D02*
Y34828D01*
X24604Y33454D02*
X24972D01*
X25904Y25954D02*
X26346D01*
Y26372D01*
X31464Y25906D02*
Y26372D01*
X33428Y27155D02*
X33737Y26845D01*
X28905Y25859D02*
Y26372D01*
Y25859D02*
X29685Y25079D01*
X30244Y25244D02*
Y25732D01*
Y25244D02*
X30543D01*
X30551Y25236D01*
X27047Y23976D02*
Y24441D01*
X27008Y23937D02*
X27047Y23976D01*
X27185Y23248D02*
X27244Y23307D01*
X26890Y23248D02*
X27185D01*
X26417Y23268D02*
Y25000D01*
Y23268D02*
X26437Y23248D01*
X25644Y25000D02*
X26417D01*
X26750D01*
X29692Y26017D02*
Y26372D01*
Y26017D02*
X29764Y25945D01*
X30906Y24921D02*
Y25591D01*
X30551Y24567D02*
X30906Y24921D01*
X33795Y26255D02*
X34200D01*
X33678Y26372D02*
X33795Y26255D01*
X27441Y24094D02*
X27677D01*
X28701Y23071D01*
X27736Y23366D02*
X28091D01*
X27244Y23898D02*
X27441Y24094D01*
X27244Y23307D02*
Y23898D01*
X29311Y22776D02*
X29744D01*
X31772Y24094D02*
X32448D01*
Y25803D02*
Y26372D01*
Y24094D02*
X33031Y24678D01*
Y25219D01*
X32448Y25803D02*
X33031Y25219D01*
X32441Y24961D02*
Y25512D01*
X32251Y25702D02*
X32441Y25512D01*
X32251Y25702D02*
Y26372D01*
X28425Y22087D02*
Y22441D01*
X28406Y22461D02*
X28425Y22441D01*
X27854Y23169D02*
X28091D01*
X27854Y21211D02*
Y23169D01*
X27618Y20974D02*
X27854Y21211D01*
X25906Y22874D02*
X26280Y23248D01*
X25906Y21309D02*
Y22874D01*
Y21309D02*
X26240Y20974D01*
X26280Y23248D02*
X26437D01*
X26890D01*
X16024Y31811D02*
X16712Y32500D01*
X16024Y30787D02*
Y31811D01*
X15866Y30630D02*
X16024Y30787D01*
X15177Y30630D02*
X15866D01*
X21556Y29900D02*
X21890Y29567D01*
X23974Y29724D02*
X24358Y30108D01*
X24084Y30305D02*
X24972D01*
X22520Y31220D02*
X22638Y31339D01*
X24196Y31063D02*
X24555Y30705D01*
X22637Y30550D02*
X23150Y31063D01*
X24196D01*
X22126Y30140D02*
X22345D01*
X22645Y30440D01*
X22682D01*
X23195Y30953D01*
X24151D01*
X24509Y30595D01*
X24563D01*
X24656Y30502D01*
X24972D01*
X16496Y30079D02*
X17323D01*
X16339Y29921D02*
X16496Y30079D01*
X16008Y29921D02*
X16339D01*
X16811Y30787D02*
X17638D01*
X16378Y30354D02*
X16811Y30787D01*
X16024Y30354D02*
X16378D01*
X14449Y29843D02*
Y31496D01*
Y29843D02*
X14685Y29606D01*
X15177D01*
Y28652D02*
Y29606D01*
X13829Y31496D02*
X14449D01*
X13681Y31644D02*
X13829Y31496D01*
X14449D02*
X14537Y31585D01*
X15177D01*
X18300Y32500D02*
X18319Y32482D01*
Y32250D02*
Y32482D01*
Y32250D02*
X18650Y31918D01*
X17638Y29606D02*
X18582Y30550D01*
X15177Y29606D02*
X17638D01*
X32645Y34828D02*
X35196D01*
X35276Y34748D01*
X34102Y33748D02*
X35276D01*
X34006Y33651D02*
X34102Y33748D01*
X33428Y33651D02*
X34006D01*
X28511Y34828D02*
Y35079D01*
X27724Y34828D02*
Y35095D01*
X32441Y37032D02*
X34110D01*
X34394Y36748D01*
X35276D01*
X33428Y28730D02*
X33438Y28740D01*
X35276Y36748D02*
X36819D01*
X36850Y36780D01*
X35276Y31252D02*
X36827D01*
X36850Y31276D01*
X35276Y30252D02*
X36827D01*
X36850Y30276D01*
X20846Y34252D02*
X21575D01*
X22047Y34331D02*
Y35827D01*
X21142D02*
X22047D01*
X28740Y16968D02*
X39528D01*
Y27244D01*
X39420Y27352D02*
X39528Y27244D01*
X28535Y35984D02*
X28858D01*
X29962Y35484D02*
Y35745D01*
X28858Y35984D02*
X29358Y35484D01*
X30106D02*
X30283Y35308D01*
X29358Y35484D02*
X29962D01*
X30106D01*
X23110Y29724D02*
X23974D01*
X21890Y29567D02*
X22953D01*
X23110Y29724D01*
X35512Y23465D02*
Y24134D01*
X36681Y24213D02*
X37087D01*
X36681Y25157D02*
X38268D01*
X35913Y25610D02*
X36386D01*
X35512Y23465D02*
X35894D01*
X35913Y23445D02*
X36386D01*
X36406Y23425D01*
X35894Y23465D02*
X35913Y23445D01*
X36720Y20709D02*
X36969D01*
X35528Y25608D02*
X35912D01*
X35197Y25277D02*
X35528Y25608D01*
X35197Y24449D02*
Y25277D01*
X36720Y19280D02*
Y19449D01*
X35394Y19496D02*
Y21457D01*
Y19496D02*
X35579Y19311D01*
X18900Y28778D02*
Y29798D01*
Y29900D01*
X23278Y25079D02*
X23380D01*
X23642D01*
X17550Y27250D02*
Y27352D01*
Y27411D01*
X22000Y28500D02*
X22102D01*
X22750D01*
X23600Y28000D02*
Y28348D01*
Y28450D01*
X17900Y31155D02*
Y31748D01*
Y31850D01*
X21969Y25079D02*
X22526D01*
X22628D01*
X23525Y33350D02*
X23627D01*
X24500D01*
X21575Y34252D02*
Y34642D01*
Y34744D01*
X20455Y28500D02*
X21248D01*
X21350D01*
X32895Y32995D02*
Y33848D01*
X33428D01*
X16806Y27250D02*
X17550D01*
X20450D01*
X16496Y27559D02*
Y28022D01*
X17550Y27411D02*
X18000Y27861D01*
X22800Y29100D02*
X23200Y29500D01*
X24972Y30108D02*
X25752D01*
X18925Y29900D02*
X20500D01*
X21556D01*
X18900D02*
X18925D01*
X22875Y32970D02*
Y33350D01*
X31550Y33050D02*
X32841D01*
X32895Y32995D01*
X19079Y35409D02*
X19862Y34626D01*
X19079Y35409D02*
Y35456D01*
X19282Y35660D01*
X20338D02*
X20975D01*
X21142Y35827D01*
X22000Y27600D02*
Y28500D01*
X22800Y28450D02*
X22950D01*
X23600Y29100D02*
X24050D01*
X16712Y32500D02*
X18300D01*
X36681Y23898D02*
X36969Y23610D01*
X34764Y19764D02*
X34882D01*
X36681Y23374D02*
Y23583D01*
Y25157D02*
Y25472D01*
X36720Y21024D02*
Y21744D01*
X36681Y24213D02*
Y24843D01*
X36720Y20079D02*
Y20709D01*
D35*
X34449Y18504D02*
D03*
X28898Y18465D02*
D03*
X18622Y31260D02*
D03*
X33740Y23504D02*
D03*
X34882Y19843D02*
D03*
X37559Y21299D02*
D03*
X37362Y23937D02*
D03*
X26220Y28898D02*
D03*
X18563Y33878D02*
D03*
X26929Y29961D02*
D03*
X19173Y34449D02*
D03*
X21535Y33819D02*
D03*
X22520Y31220D02*
D03*
X25942Y31092D02*
D03*
X26950Y27700D02*
D03*
X29500D02*
D03*
X32250D02*
D03*
X32161Y31289D02*
D03*
X32200Y33850D02*
D03*
X30100Y33500D02*
D03*
X27550Y33750D02*
D03*
X25900Y33250D02*
D03*
X25866Y28268D02*
D03*
X24685Y25315D02*
D03*
X27638Y23583D02*
D03*
X29252Y24252D02*
D03*
X28504Y25079D02*
D03*
X29685D02*
D03*
X29882Y22874D02*
D03*
X32441Y24961D02*
D03*
X22126Y30140D02*
D03*
X23898Y30315D02*
D03*
X17323Y30079D02*
D03*
X17638Y30787D02*
D03*
X25910Y30160D02*
D03*
D36*
X34646Y23795D02*
D03*
Y22795D02*
D03*
Y21795D02*
D03*
X35276Y33748D02*
D03*
Y34748D02*
D03*
Y35748D02*
D03*
Y28252D02*
D03*
Y29252D02*
D03*
Y30252D02*
D03*
X31551Y37165D02*
D03*
X30551D02*
D03*
X29551D02*
D03*
X27244D02*
D03*
X26244D02*
D03*
X25244D02*
D03*
X36850Y33780D02*
D03*
Y34780D02*
D03*
Y35780D02*
D03*
Y28276D02*
D03*
Y29276D02*
D03*
Y30276D02*
D03*
X27244Y35945D02*
D03*
X26244D02*
D03*
X25244D02*
D03*
X31535Y35984D02*
D03*
X30535D02*
D03*
X29535D02*
D03*
D37*
X34646Y20795D02*
D03*
X35276Y36748D02*
D03*
Y31252D02*
D03*
X36850Y36780D02*
D03*
Y31276D02*
D03*
D38*
X26450Y25600D02*
D03*
X25859D02*
D03*
X34200Y26845D02*
D03*
Y26255D02*
D03*
D39*
X15177Y31585D02*
D03*
Y28652D02*
D03*
D40*
X13681Y31644D02*
D03*
Y28593D02*
D03*
D41*
X14764Y31102D02*
D03*
Y29134D02*
D03*
D42*
X28551Y37165D02*
D03*
X24244D02*
D03*
Y35945D02*
D03*
X28535Y35984D02*
D03*
D43*
X38719Y22844D02*
D03*
Y26206D02*
D03*
X36857Y22844D02*
D03*
X38754Y18689D02*
D03*
Y22051D02*
D03*
X36892Y18689D02*
D03*
Y22051D02*
D03*
X36857Y26206D02*
D03*
D44*
X36680Y25470D02*
D03*
Y23580D02*
D03*
Y25155D02*
D03*
Y23895D02*
D03*
Y24840D02*
D03*
Y24210D02*
D03*
X36404Y25627D02*
D03*
Y23423D02*
D03*
Y25313D02*
D03*
Y23738D02*
D03*
Y24998D02*
D03*
Y24053D02*
D03*
Y24683D02*
D03*
Y24368D02*
D03*
X36715Y21315D02*
D03*
Y19425D02*
D03*
Y21000D02*
D03*
Y19740D02*
D03*
Y20685D02*
D03*
Y20055D02*
D03*
X36439Y21472D02*
D03*
Y19268D02*
D03*
Y21157D02*
D03*
Y19583D02*
D03*
Y20842D02*
D03*
Y19898D02*
D03*
Y20527D02*
D03*
Y20213D02*
D03*
M02*
