G04 Layer_Color=16711935*
%FSLAX24Y24*%
%MOIN*%
G70*
G01*
G75*
%ADD77C,0.0680*%
%ADD78C,0.0671*%
%ADD79R,0.0671X0.0671*%
%ADD80C,0.0513*%
%ADD81O,0.0867X0.0651*%
%ADD82O,0.0789X0.0533*%
%ADD83C,0.0395*%
%ADD84R,0.0671X0.0671*%
%ADD85O,0.0710X0.0474*%
%ADD86C,0.0413*%
D77*
X34449Y18504D02*
D03*
X28898Y18465D02*
D03*
X18622Y31260D02*
D03*
X33740Y23504D02*
D03*
X34882Y19843D02*
D03*
X37559Y21299D02*
D03*
X37362Y23937D02*
D03*
X26220Y28898D02*
D03*
X18563Y33878D02*
D03*
X26929Y29961D02*
D03*
X19173Y34449D02*
D03*
X21535Y33819D02*
D03*
X22520Y31220D02*
D03*
X25942Y31092D02*
D03*
X26950Y27700D02*
D03*
X29500D02*
D03*
X32250D02*
D03*
X32161Y31289D02*
D03*
X32200Y33850D02*
D03*
X30100Y33500D02*
D03*
X27550Y33750D02*
D03*
X25900Y33250D02*
D03*
X25866Y28268D02*
D03*
X24685Y25315D02*
D03*
X27638Y23583D02*
D03*
X29252Y24252D02*
D03*
X28504Y25079D02*
D03*
X29685D02*
D03*
X29882Y22874D02*
D03*
X32441Y24961D02*
D03*
X22126Y30140D02*
D03*
X23898Y30315D02*
D03*
X17323Y30079D02*
D03*
X17638Y30787D02*
D03*
X25910Y30160D02*
D03*
D78*
X34646Y23795D02*
D03*
Y22795D02*
D03*
Y21795D02*
D03*
X35276Y33748D02*
D03*
Y34748D02*
D03*
Y35748D02*
D03*
Y28252D02*
D03*
Y29252D02*
D03*
Y30252D02*
D03*
X31551Y37165D02*
D03*
X30551D02*
D03*
X29551D02*
D03*
X27244D02*
D03*
X26244D02*
D03*
X25244D02*
D03*
X36850Y33780D02*
D03*
Y34780D02*
D03*
Y35780D02*
D03*
Y28276D02*
D03*
Y29276D02*
D03*
Y30276D02*
D03*
X27244Y35945D02*
D03*
X26244D02*
D03*
X25244D02*
D03*
X31535Y35984D02*
D03*
X30535D02*
D03*
X29535D02*
D03*
D79*
X34646Y20795D02*
D03*
X35276Y36748D02*
D03*
Y31252D02*
D03*
X36850Y36780D02*
D03*
Y31276D02*
D03*
D80*
X26450Y25600D02*
D03*
X25859D02*
D03*
X34200Y26845D02*
D03*
Y26255D02*
D03*
D81*
X15177Y31585D02*
D03*
Y28652D02*
D03*
D82*
X13681Y31644D02*
D03*
Y28593D02*
D03*
D83*
X14764Y31102D02*
D03*
Y29134D02*
D03*
D84*
X28551Y37165D02*
D03*
X24244D02*
D03*
Y35945D02*
D03*
X28535Y35984D02*
D03*
D85*
X38719Y22844D02*
D03*
Y26206D02*
D03*
X36857Y22844D02*
D03*
X38754Y18689D02*
D03*
Y22051D02*
D03*
X36892Y18689D02*
D03*
Y22051D02*
D03*
X36857Y26206D02*
D03*
D86*
X36680Y25470D02*
D03*
Y23580D02*
D03*
Y25155D02*
D03*
Y23895D02*
D03*
Y24840D02*
D03*
Y24210D02*
D03*
X36404Y25627D02*
D03*
Y23423D02*
D03*
Y25313D02*
D03*
Y23738D02*
D03*
Y24998D02*
D03*
Y24053D02*
D03*
Y24683D02*
D03*
Y24368D02*
D03*
X36715Y21315D02*
D03*
Y19425D02*
D03*
Y21000D02*
D03*
Y19740D02*
D03*
Y20685D02*
D03*
Y20055D02*
D03*
X36439Y21472D02*
D03*
Y19268D02*
D03*
Y21157D02*
D03*
Y19583D02*
D03*
Y20842D02*
D03*
Y19898D02*
D03*
Y20527D02*
D03*
Y20213D02*
D03*
M02*
