M48
;Layer_Color=9474304
;FILE_FORMAT=2:4
INCH
;TYPE=PLATED
T1F00S00C0.0157
T2F00S00C0.0197
T5F00S00C0.0300
T7F00S00C0.0354
;TYPE=NON_PLATED
T8F00S00C0.0315
%
T01
X036439Y019268
Y019583
Y019898
Y020213
Y020527
Y020842
Y021157
Y021472
X036715Y021315
Y021000
Y020685
Y020055
Y019740
Y019425
X036680Y023580
Y023895
Y024210
X036404Y024053
Y023738
Y023423
Y024368
Y024683
Y024998
Y025313
Y025627
X036680Y025470
Y025155
Y024840
T02
X034200Y026255
Y026845
X026450Y025600
X025859
T05
X034449Y018504
X034882Y019843
X037559Y021299
X037362Y023937
X033740Y023504
X032441Y024961
X032250Y027700
X029500
X026950
X025866Y028268
X026220Y028898
X025910Y030160
X025942Y031092
X026929Y029961
X023898Y030315
X022126Y030140
X022520Y031220
X017638Y030787
X017323Y030079
X024685Y025315
X028504Y025079
X029685
X029252Y024252
X029882Y022874
X027638Y023583
X028898Y018465
X030100Y033500
X027550Y033750
X025900Y033250
X021535Y033819
X019173Y034449
X018563Y033878
X018622Y031260
X032161Y031289
X032200Y033850
T07
X034646Y020795
Y021795
Y022795
Y023795
X035276Y028252
Y029252
Y030252
X036850Y030276
Y029276
Y028276
X030535Y035984
X029535
X028535
X028551Y037165
X029551
X030551
X027244
X026244
X025244
X024244
Y035945
X025244
X026244
X027244
X031535Y035984
X031551Y037165
X035276Y036748
Y035748
Y034748
Y033748
X036850Y033780
Y034780
Y035780
Y036780
Y031276
X035276Y031252
T08
X014764Y029134
Y031102
M30
